:SAMPLES-PER-SECOND 30
:FRAME-RANGE 1-3358
:FULLY-SPECIFIED
:DEGREES
2414
root  -32.0058 39.1132 23.9847 179.897 9.2644 -179.904
RightUpLeg  -8.6456 -2.99963 1.42638
RightLeg  21.7418 -7.97581 -3.74987
RightFoot  -12.6239 -0.066657 1.68529
RightToes  -5.8209e-011 0 -3.6325e-017
Spine  10.2265 -0.106292 9.00886
Spine1  -5.11779 0.763731 -0.2263
HEad  3.73247 5.13026 -4.06533
LeftShoulder1  0.968825 0.809924 -29.8811
LeftArm  4.46495 5.41501 -25.4421
LeftForeArm  -1.30626 -16.6165 -9.76424
LeftHand  0.453696 -3.4739 -5.69869
RightShoulder  4.41991 4.84136 46.3951
RightArm  26.713 -1.52818 13.88
RightForeArm  -21.6851 18.8252 9.45093
RightHand  1.1033 6.42231 10.4438
LeftUpLeg  -19.5092 15.5872 8.55979
LeftLeg  39.2709 -2.976 -2.24147
LeftFoot  -4.80906 0.901697 -15.2232
LeftToes  -4.03819e-010 -8.71445e-011 8.52097e-011
2415
root  -32.3844 39.2096 23.3008 179.851 11.9322 179.914
RightUpLeg  -7.20214 -1.24144 0.622332
RightLeg  20.3978 -6.92998 -3.54423
RightFoot  -12.7648 -0.0605345 2.08918
RightToes  -5.8209e-011 0 -3.6325e-017
Spine  10.4041 -0.0362886 8.53546
Spine1  -5.33135 0.743408 -0.461904
HEad  4.19589 7.88635 -4.25808
LeftShoulder1  0.945386 0.878701 -29.9301
LeftArm  4.34066 5.78341 -24.918
LeftForeArm  -2.70177 -17.087 -9.43292
LeftHand  0.463389 -3.33443 -5.94709
RightShoulder  4.54388 5.04473 46.5639
RightArm  28.8037 -1.38952 14.3941
RightForeArm  -24.5191 20.7359 7.9187
RightHand  1.14379 6.50115 10.761
LeftUpLeg  -18.6259 14.178 9.38453
LeftLeg  30.0382 -3.72887 -1.99329
LeftFoot  -4.17826 0.970035 -15.0281
LeftToes  -4.03819e-010 -8.71445e-011 8.52097e-011
2416
root  -32.7821 39.2308 22.6497 179.966 14.9257 -179.967
RightUpLeg  -6.3717 1.03043 0.051909
RightLeg  19.768 -6.19488 -3.42076
RightFoot  -13.1278 -0.0426906 2.96844
RightToes  -5.8209e-011 0 -3.6325e-017
Spine  10.5448 0.0725888 7.97141
Spine1  -5.27778 0.753716 -0.457145
HEad  4.34661 10.7226 -4.33968
LeftShoulder1  0.935805 0.912116 -30.0255
LeftArm  3.64167 5.47465 -24.4942
LeftForeArm  -3.96256 -17.3951 -9.20471
LeftHand  0.471818 -3.10466 -6.08833
RightShoulder  4.70564 5.29945 46.83
RightArm  28.8307 -0.927947 14.4787
RightForeArm  -25.0282 21.3333 7.45306
RightHand  1.18422 6.50511 11.147
LeftUpLeg  -17.2458 11.1261 11.0046
LeftLeg  20.853 -4.48681 -1.56566
LeftFoot  -3.8826 0.916742 -13.6565
LeftToes  -4.03819e-010 -8.71445e-011 8.52097e-011
2417
root  -33.1988 39.1597 22.0008 -179.889 18.2704 -179.722
RightUpLeg  -6.10655 5.16941 -0.431885
RightLeg  20.1926 -6.68558 -3.55888
RightFoot  -13.9153 -0.00287423 4.07048
RightToes  -5.8209e-011 0 -3.6325e-017
Spine  10.7943 0.261139 6.99234
Spine1  -5.25692 0.79011 -0.0580681
HEad  3.97928 13.763 -4.22301
LeftShoulder1  0.933819 0.893851 -29.6923
LeftArm  3.00207 4.91328 -24.3806
LeftForeArm  -5.15863 -17.7788 -8.90775
LeftHand  0.481509 -2.95755 -6.37013
RightShoulder  4.94753 5.70288 47.0813
RightArm  27.9934 -0.725455 14.1936
RightForeArm  -24.7719 21.0602 7.64378
RightHand  1.19605 6.50291 11.2633
LeftUpLeg  -15.6599 7.24253 13.0469
LeftLeg  12.7072 -5.4533 -0.927185
LeftFoot  -3.45747 0.918631 -12.9873
LeftToes  -4.03819e-010 -8.71445e-011 8.52097e-011
2418
root  -33.6701 38.9854 21.3117 -179.811 21.5791 -179.093
RightUpLeg  -6.10289 10.0301 -0.717297
RightLeg  21.563 -7.92784 -3.77851
RightFoot  -15.0369 0.0690136 5.29768
RightToes  -5.8209e-011 0 -3.6325e-017
Spine  11.2255 0.279218 6.21845
Spine1  -5.18597 0.671735 0.524136
HEad  3.28484 16.7295 -3.71871
LeftShoulder1  0.935013 0.863504 -29.3207
LeftArm  2.75206 3.79 -23.9823
LeftForeArm  -6.10999 -18.3293 -8.47944
LeftHand  0.48681 -2.93693 -6.57131
RightShoulder  5.02934 5.81919 47.2652
RightArm  26.6693 -0.490841 13.7941
RightForeArm  -24.1047 20.2529 8.27759
RightHand  1.17809 6.50782 11.0853
LeftUpLeg  -14.5266 6.88661 14.3019
LeftLeg  7.5074 -10.3757 0.141993
LeftFoot  -2.54054 1.07258 -13.6887
LeftToes  -4.03819e-010 -8.71445e-011 8.52097e-011
2419
root  -34.235 38.759 20.5721 -179.485 24.6053 -178.264
RightUpLeg  -6.30827 13.5391 -1.04959
RightLeg  22.9529 -7.8969 -3.87474
RightFoot  -16.3384 0.185393 6.78313
RightToes  -5.8209e-011 0 -3.6325e-017
Spine  11.4136 0.113957 5.7574
Spine1  -4.93039 0.410611 0.948691
HEad  2.92048 19.2611 -2.96053
LeftShoulder1  0.950334 0.801548 -29.0721
LeftArm  1.87768 1.95348 -23.4065
LeftForeArm  -6.31921 -18.6471 -8.19456
LeftHand  0.482724 -2.88914 -6.55601
RightShoulder  4.96844 5.70216 47.2878
RightArm  23.5745 -0.427691 13.0689
RightForeArm  -22.0049 18.728 9.46302
RightHand  1.169 6.47136 11.0335
LeftUpLeg  -14.3981 8.74913 15.2545
LeftLeg  6.32732 -14.1341 -0.21396
LeftFoot  -2.89081 1.32557 -17.5909
LeftToes  -4.03819e-010 -8.71445e-011 8.52097e-011
2420
root  -34.8959 38.5379 19.7973 -179.283 27.4669 -178.032
RightUpLeg  -6.68661 16.3577 -2.29193
RightLeg  24.1991 -7.40174 -3.84538
RightFoot  -17.6064 0.341661 8.4148
RightToes  -5.8209e-011 0 -3.6325e-017
Spine  11.4428 -0.0798132 4.72196
Spine1  -4.44102 0.0875906 1.23473
HEad  2.89036 21.4446 -2.16161
LeftShoulder1  0.978895 0.707239 -28.9055
LeftArm  0.327664 -0.583233 -22.8123
LeftForeArm  -7.20554 -18.6886 -8.16168
LeftHand  0.461009 -2.49944 -6.59488
RightShoulder  4.68709 5.23101 47.0152
RightArm  18.2793 -0.106075 12.0089
RightForeArm  -17.7762 15.9429 11.4957
RightHand  1.17166 6.56931 10.9635
LeftUpLeg  -14.6282 9.35187 15.0928
LeftLeg  8.03214 -13.8471 -1.13104
LeftFoot  2.1127 2.31997 -19.6114
LeftToes  -4.03819e-010 -8.71445e-011 8.52097e-011
2421
root  -35.5814 38.3808 19.0869 -179.34 30.1053 -178.642
RightUpLeg  -7.37232 19.0947 -4.45792
RightLeg  25.1682 -7.16657 -3.88177
RightFoot  -18.3743 0.478024 9.79022
RightToes  -5.8209e-011 0 -3.6325e-017
Spine  12.1979 -0.204796 2.15036
Spine1  -4.68537 -0.356303 1.98275
HEad  2.3955 23.8337 -1.71491
LeftShoulder1  1.01011 0.60879 -28.7926
LeftArm  -1.35458 -3.42965 -22.1174
LeftForeArm  -8.69089 -18.8228 -8.08684
LeftHand  0.456815 -2.21144 -6.80717
RightShoulder  4.39948 4.72237 46.8608
RightArm  11.5158 0.0188123 10.3241
RightForeArm  -12.6988 12.4413 13.5155
RightHand  1.16344 6.57176 10.8823
LeftUpLeg  -16.5343 9.15415 13.9645
LeftLeg  14.2162 -11.2465 -2.74092
LeftFoot  0.329088 1.71208 -16.6739
LeftToes  -4.03819e-010 -8.71445e-011 8.52097e-011
2422
root  -36.2192 38.2854 18.3946 -179.55 32.3838 -179.558
RightUpLeg  -7.91401 21.3294 -6.86464
RightLeg  25.5428 -6.93356 -3.82163
RightFoot  -18.7022 0.566238 10.752
RightToes  -5.8209e-011 0 -3.6325e-017
Spine  12.5994 -0.223131 -0.87775
Spine1  -4.4412 -0.88432 3.39139
HEad  1.92562 25.9822 -1.10504
LeftShoulder1  1.06224 0.396619 -28.0741
LeftArm  -4.24338 -7.08466 -21.6164
LeftForeArm  -8.3225 -18.0619 -8.59539
LeftHand  0.449547 -1.99928 -6.90866
RightShoulder  4.06294 4.1052 46.7922
RightArm  3.33255 -0.207778 8.55664
RightForeArm  -6.9937 8.3748 14.9186
RightHand  1.14464 6.57101 10.7028
LeftUpLeg  -17.6741 11.9629 11.9042
LeftLeg  18.2321 -11.3531 -3.82809
LeftFoot  -0.985028 1.33199 -14.5698
LeftToes  -4.03819e-010 -8.71445e-011 8.52097e-011
2423
root  -36.8563 38.3517 17.7576 -178.985 35.2463 -179.813
RightUpLeg  -8.39093 22.8636 -9.03866
RightLeg  23.6244 -6.10641 -3.13521
RightFoot  -17.7148 0.522801 11.52
RightToes  -5.8209e-011 0 -3.6325e-017
Spine  12.305 -0.325249 -1.96182
Spine1  -3.81481 -0.922654 2.19869
HEad  1.13826 27.8489 -0.88972
LeftShoulder1  1.15419 0.060301 -27.3914
LeftArm  -7.49425 -11.1821 -20.3634
LeftForeArm  -7.40368 -17.0408 -9.25119
LeftHand  0.468289 -1.87947 -7.33332
RightShoulder  3.72159 3.54213 46.2821
RightArm  -3.33379 -1.11897 7.14441
RightForeArm  -2.95102 4.81735 15.4102
RightHand  1.13502 6.51872 10.6598
LeftUpLeg  -18.1652 15.0602 10.3591
LeftLeg  19.9814 -11.1051 -4.11928
LeftFoot  -2.01155 1.07739 -13.0124
LeftToes  -4.03819e-010 -8.71445e-011 8.52097e-011
